<svg version="1.2" xmlns="http://www.w3.org/2000/svg" viewBox="0 0 64 64" width="32" height="32">
	<title>reshot-icon-hospital-5QTVMZ9SJX</title>
	<style>
		.s0 { fill: #0b3442 } 
		.s1 { fill: #e6e6e6 } 
		.s2 { fill: #55c9e9 } 
		.s3 { fill: #dd2b26 } 
		.s4 { fill: #002539 } 
		.s5 { fill: #f2f2f2 } 
		.s6 { fill: #02bfe2 } 
		.s7 { fill: #0980b7 } 
		.s8 { fill: #000000 } 
	</style>
	<g id="guides">
	</g>
	<g id="_x32_5._location_pin">
	</g>
	<g id="_x32_4._first_aid_kit">
	</g>
	<g id="_x32_3._medicine">
	</g>
	<g id="_x32_2._pills">
	</g>
	<g id="_x32_1._flask">
	</g>
	<g id="_x32_0._syringe">
	</g>
	<g id="_x31_9._brain">
	</g>
	<g id="_x31_8._bandage">
	</g>
	<g id="_x31_7._bed">
	</g>
	<g id="_x31_6._blood_test">
	</g>
	<g id="_x31_5._rx">
	</g>
	<g id="_x31_4._injury">
	</g>
	<g id="_x31_3._call">
	</g>
	<g id="_x31_2._heart">
	</g>
	<g id="_x31_1._stethoscope">
	</g>
	<g id="_x31_0._hospital">
		<g>
			<path class="s0" d="m24.5 20h-3c-0.3 0-0.5-0.2-0.5-0.5v-4c0-0.3 0.2-0.5 0.5-0.5h3c0.3 0 0.5 0.2 0.5 0.5v4c0 0.3-0.2 0.5-0.5 0.5zm-2.5-1h2v-3h-2z"/>
		</g>
		<g>
			<path class="s0" d="m45.5 20h-3c-0.3 0-0.5-0.2-0.5-0.5v-4c0-0.3 0.2-0.5 0.5-0.5h3c0.3 0 0.5 0.2 0.5 0.5v4c0 0.3-0.2 0.5-0.5 0.5zm-2.5-1h2v-3h-2z"/>
		</g>
		<path class="s1" d="m56 21.5v33c0 1.4-1.1 2.5-2.5 2.5h-40c-1.4 0-2.5-1.1-2.5-2.5v-33c0-1.4 1.1-2.5 2.5-2.5h40c1.4 0 2.5 1.1 2.5 2.5z"/>
		<path class="s2" d="m40 39.5v3c0 0.8-0.7 1.5-1.5 1.5h-29c-0.8 0-1.5-0.7-1.5-1.5v-3c0-0.8 0.7-1.5 1.5-1.5h29c0.8 0 1.5 0.7 1.5 1.5z"/>
		<path class="s0" d="m40 46.5v10.5h-8v-10.5c0-0.3 0.2-0.5 0.5-0.5h7c0.3 0 0.5 0.2 0.5 0.5z"/>
		<path class="s2" d="m40 23.5v11c0 0.3-0.2 0.5-0.5 0.5h-28.5v-12h28.5c0.3 0 0.5 0.2 0.5 0.5z"/>
		<path class="s2" d="m50.5 22h-6c-0.8 0-1.5 0.7-1.5 1.5v6c0 0.8 0.7 1.5 1.5 1.5h6c0.8 0 1.5-0.7 1.5-1.5v-6c0-0.8-0.7-1.5-1.5-1.5z"/>
		<path class="s2" d="m52 35.5v6c0 0.8-0.7 1.5-1.5 1.5h-6c-0.8 0-1.5-0.7-1.5-1.5v-6c0-0.8 0.7-1.5 1.5-1.5h6c0.8 0 1.5 0.7 1.5 1.5z"/>
		<path class="s3" d="m54.5 7h-42c-0.3 0-0.5 0.2-0.5 0.5v8c0 0.3 0.2 0.5 0.5 0.5h42c0.3 0 0.5-0.2 0.5-0.5v-8c0-0.3-0.2-0.5-0.5-0.5z"/>
		<path class="s4" d="m40 55v2h-8v-10.5c0-0.3 0.2-0.5 0.5-0.5h1.5c0 0 0 9 6 9z"/>
		<g>
			<path class="s5" d="m17.5 9c-0.3 0-0.5 0.2-0.5 0.5v1.5h-2v-1.5c0-0.3-0.2-0.5-0.5-0.5-0.3 0-0.5 0.2-0.5 0.5v4c0 0.3 0.2 0.5 0.5 0.5 0.3 0 0.5-0.2 0.5-0.5v-1.5h2v1.5c0 0.3 0.2 0.5 0.5 0.5 0.3 0 0.5-0.2 0.5-0.5v-4c0-0.3-0.2-0.5-0.5-0.5z"/>
			<path class="s5" d="m21.5 9c-1.4 0-2.5 1.1-2.5 2.5 0 1.4 1.1 2.5 2.5 2.5 1.4 0 2.5-1.1 2.5-2.5 0-1.4-1.1-2.5-2.5-2.5zm0 4c-0.8 0-1.5-0.7-1.5-1.5 0-0.8 0.7-1.5 1.5-1.5 0.8 0 1.5 0.7 1.5 1.5 0 0.8-0.7 1.5-1.5 1.5z"/>
			<path class="s5" d="m26.5 10h2c0.3 0 0.5-0.2 0.5-0.5 0-0.3-0.2-0.5-0.5-0.5h-2c-0.8 0-1.5 0.7-1.5 1.5 0 0.8 0.7 1.5 1.5 1.5h1c0.3 0 0.5 0.2 0.5 0.5 0 0.3-0.2 0.5-0.5 0.5h-2c-0.3 0-0.5 0.2-0.5 0.5 0 0.3 0.2 0.5 0.5 0.5h2c0.8 0 1.5-0.7 1.5-1.5 0-0.8-0.7-1.5-1.5-1.5h-1c-0.3 0-0.5-0.2-0.5-0.5 0-0.3 0.2-0.5 0.5-0.5z"/>
			<path class="s5" d="m32.5 9h-2c-0.3 0-0.5 0.2-0.5 0.5v4c0 0.3 0.2 0.5 0.5 0.5 0.3 0 0.5-0.2 0.5-0.5v-1.5h1.5c0.8 0 1.5-0.7 1.5-1.5 0-0.8-0.7-1.5-1.5-1.5zm0 2h-1.5v-1h1.5c0.3 0 0.5 0.2 0.5 0.5 0 0.3-0.2 0.5-0.5 0.5z"/>
			<path class="s5" d="m37.5 10c0.3 0 0.5-0.2 0.5-0.5 0-0.3-0.2-0.5-0.5-0.5h-2c-0.3 0-0.5 0.2-0.5 0.5 0 0.3 0.2 0.5 0.5 0.5h0.5v3h-0.5c-0.3 0-0.5 0.2-0.5 0.5 0 0.3 0.2 0.5 0.5 0.5h2c0.3 0 0.5-0.2 0.5-0.5 0-0.3-0.2-0.5-0.5-0.5h-0.5v-3z"/>
			<path class="s5" d="m43.5 9h-4c-0.3 0-0.5 0.2-0.5 0.5 0 0.3 0.2 0.5 0.5 0.5h1.5v3.5c0 0.3 0.2 0.5 0.5 0.5 0.3 0 0.5-0.2 0.5-0.5v-3.5h1.5c0.3 0 0.5-0.2 0.5-0.5 0-0.3-0.2-0.5-0.5-0.5z"/>
			<path class="s5" d="m46.9 9.3q0 0 0-0.1 0 0-0.1 0 0-0.1 0-0.1-0.1 0-0.1 0 0-0.1 0-0.1-0.1 0-0.1 0-0.1 0-0.1 0 0 0-0.1 0 0 0-0.1 0 0 0 0 0.1 0 0-0.1 0 0 0 0 0-0.1 0.1-0.1 0.1 0 0.1 0 0.1l-2 4c-0.2 0.2-0.1 0.5 0.2 0.6q0.1 0.1 0.2 0.1c0.2 0 0.4-0.1 0.4-0.3l0.4-0.7q0.1 0 0.2 0h2q0.1 0 0.2 0l0.4 0.7c0 0.2 0.2 0.3 0.4 0.3q0.1 0 0.2-0.1c0.3-0.1 0.4-0.4 0.2-0.6zm-1.1 2.7l0.7-1.4 0.7 1.4z"/>
			<path class="s5" d="m52.5 13h-1.5v-3.5c0-0.3-0.2-0.5-0.5-0.5-0.3 0-0.5 0.2-0.5 0.5v4c0 0.3 0.2 0.5 0.5 0.5h2c0.3 0 0.5-0.2 0.5-0.5 0-0.3-0.2-0.5-0.5-0.5z"/>
		</g>
		<g>
			<path class="s5" d="m34.5 53c-0.3 0-0.5-0.2-0.5-0.5v-1c0-0.3 0.2-0.5 0.5-0.5 0.3 0 0.5 0.2 0.5 0.5v1c0 0.3-0.2 0.5-0.5 0.5z"/>
		</g>
		<path class="s2" d="m30 46.5v5c0 0.3-0.2 0.5-0.5 0.5h-15c-0.3 0-0.5-0.2-0.5-0.5v-5c0-0.3 0.2-0.5 0.5-0.5h15c0.3 0 0.5 0.2 0.5 0.5z"/>
		<path class="s6" d="m30 51v0.5c0 0.3-0.2 0.5-0.5 0.5h-15c-0.3 0-0.5-0.2-0.5-0.5v-5c0-0.3 0.2-0.5 0.5-0.5h1.5c0 0 0 5 14 5z"/>
		<g>
			<path fill-rule="evenodd" class="s7" d="m19 46h1v6h-1z"/>
		</g>
		<g>
			<path fill-rule="evenodd" class="s7" d="m24 46h1v6h-1z"/>
		</g>
		<path class="s6" d="m51 49.5q0 0.7-0.2 1.3c-0.5 1.3-1.8 2.2-3.3 2.2-1.9 0-3.5-1.6-3.5-3.5 0-1.5 0.9-2.8 2.2-3.3q0.6-0.2 1.3-0.2c1.9 0 3.5 1.6 3.5 3.5z"/>
		<path class="s2" d="m51 49.5q0 0.7-0.2 1.3-0.6 0.2-1.3 0.2c-1.9 0-3.5-1.6-3.5-3.5q0-0.7 0.2-1.3 0.6-0.2 1.3-0.2c1.9 0 3.5 1.6 3.5 3.5z"/>
		<path class="s6" d="m40 33v1.5c0 0.3-0.2 0.5-0.5 0.5h-28.5v-12h3c0 0 1 10 26 10z"/>
		<path class="s6" d="m40 42v0.5c0 0.8-0.7 1.5-1.5 1.5h-29c-0.8 0-1.5-0.7-1.5-1.5v-3c0-0.8 0.7-1.5 1.5-1.5h0.5c0 0-1 4 30 4z"/>
		<path class="s6" d="m52 41v0.5c0 0.8-0.7 1.5-1.5 1.5h-6c-0.8 0-1.5-0.7-1.5-1.5v-6c0-0.8 0.7-1.5 1.5-1.5h1.5c0 0-1 7 6 7z"/>
		<path class="s6" d="m52 29v0.5c0 0.8-0.7 1.5-1.5 1.5h-6c-0.8 0-1.5-0.7-1.5-1.5v-6c0-0.8 0.7-1.5 1.5-1.5h1.5c0 0-1 7 6 7z"/>
		<g>
			<path class="s8" d="m55.5 25c0.3 0 0.5-0.2 0.5-0.5v-3c0-1.4-1.1-2.5-2.5-2.5h-7.5v-3h8.5c0.3 0 0.5-0.2 0.5-0.5v-4c0-0.3-0.2-0.5-0.5-0.5-0.3 0-0.5 0.2-0.5 0.5v3.5c-8.5 0-31.8 0-41 0v-7h41v0.5c0 0.3 0.2 0.5 0.5 0.5 0.3 0 0.5-0.2 0.5-0.5v-1c0-0.3-0.2-0.5-0.5-0.5h-42c-0.3 0-0.5 0.2-0.5 0.5v8c0 0.3 0.2 0.5 0.5 0.5h8.5v3h-7.5c-1.4 0-2.5 1.1-2.5 2.5v2 11 3.5h-1.5c-0.8 0-1.5 0.7-1.5 1.5v3c0 0.8 0.7 1.5 1.5 1.5h1.5v10.5c0 1.4 1.1 2.5 2.5 2.5h19 7 14c1.4 0 2.5-1.1 2.5-2.5v-26c0-0.3-0.2-0.5-0.5-0.5-0.3 0-0.5 0.2-0.5 0.5v26c0 0.8-0.7 1.5-1.5 1.5h-13.5v-9.5c0-0.3-0.2-0.5-0.5-0.5h-7c-0.3 0-0.5 0.2-0.5 0.5v9.5h-18.5c-0.8 0-1.5-0.7-1.5-1.5v-10.5h21.5c0.3 0 0.5-0.2 0.5-0.5 0-0.3-0.2-0.5-0.5-0.5h-24c-0.3 0-0.5-0.2-0.5-0.5v-3c0-0.3 0.2-0.5 0.5-0.5h29c0.3 0 0.5 0.2 0.5 0.5v3c0 0.3-0.2 0.5-0.5 0.5h-1c-0.3 0-0.5 0.2-0.5 0.5 0 0.3 0.2 0.5 0.5 0.5h1c0.8 0 1.5-0.7 1.5-1.5v-3c0-0.8-0.7-1.5-1.5-1.5h-26.5v-3h27.5c0.3 0 0.5-0.2 0.5-0.5v-11c0-0.3-0.2-0.5-0.5-0.5h-3c-0.3 0-0.5 0.2-0.5 0.5 0 0.3 0.2 0.5 0.5 0.5h2.5v10h-27v-10h20.5c0.3 0 0.5-0.2 0.5-0.5 0-0.3-0.2-0.5-0.5-0.5h-20.5v-1.5c0-0.8 0.7-1.5 1.5-1.5 18.5 0 21.4 0 40 0 0.8 0 1.5 0.7 1.5 1.5v3c0 0.3 0.2 0.5 0.5 0.5zm-22.5 22h6v9h-6zm9-31v3h-17v-3zm-20 3v-3h2v3zm21 0v-3h2v3z"/>
			<path class="s8" d="m52 23.5c0-0.8-0.7-1.5-1.5-1.5h-6c-0.8 0-1.5 0.7-1.5 1.5v6c0 0.8 0.7 1.5 1.5 1.5h6c0.8 0 1.5-0.7 1.5-1.5zm-1 6c0 0.3-0.2 0.5-0.5 0.5h-6c-0.3 0-0.5-0.2-0.5-0.5v-6c0-0.3 0.2-0.5 0.5-0.5h6c0.3 0 0.5 0.2 0.5 0.5z"/>
			<path class="s8" d="m51.5 37c0.3 0 0.5-0.2 0.5-0.5v-1c0-0.8-0.7-1.5-1.5-1.5h-6c-0.8 0-1.5 0.7-1.5 1.5v6c0 0.8 0.7 1.5 1.5 1.5h6c0.8 0 1.5-0.7 1.5-1.5v-2c0-0.3-0.2-0.5-0.5-0.5-0.3 0-0.5 0.2-0.5 0.5v2c0 0.3-0.2 0.5-0.5 0.5h-6c-0.3 0-0.5-0.2-0.5-0.5v-6c0-0.3 0.2-0.5 0.5-0.5h6c0.3 0 0.5 0.2 0.5 0.5v1c0 0.3 0.2 0.5 0.5 0.5z"/>
			<path class="s8" d="m17.5 14c0.3 0 0.5-0.2 0.5-0.5v-4c0-0.3-0.2-0.5-0.5-0.5-0.3 0-0.5 0.2-0.5 0.5v1.5h-2v-1.5c0-0.3-0.2-0.5-0.5-0.5-0.3 0-0.5 0.2-0.5 0.5v4c0 0.3 0.2 0.5 0.5 0.5 0.3 0 0.5-0.2 0.5-0.5v-1.5h2v1.5c0 0.3 0.2 0.5 0.5 0.5z"/>
			<path class="s8" d="m19 11.5c0 1.4 1.1 2.5 2.5 2.5 1.4 0 2.5-1.1 2.5-2.5 0-1.4-1.1-2.5-2.5-2.5-1.4 0-2.5 1.1-2.5 2.5zm4 0c0 0.8-0.7 1.5-1.5 1.5-0.8 0-1.5-0.7-1.5-1.5 0-0.8 0.7-1.5 1.5-1.5 0.8 0 1.5 0.7 1.5 1.5z"/>
			<path class="s8" d="m26.5 10h2c0.3 0 0.5-0.2 0.5-0.5 0-0.3-0.2-0.5-0.5-0.5h-2c-0.8 0-1.5 0.7-1.5 1.5 0 0.8 0.7 1.5 1.5 1.5h1c0.3 0 0.5 0.2 0.5 0.5 0 0.3-0.2 0.5-0.5 0.5h-2c-0.3 0-0.5 0.2-0.5 0.5 0 0.3 0.2 0.5 0.5 0.5h2c0.8 0 1.5-0.7 1.5-1.5 0-0.8-0.7-1.5-1.5-1.5h-1c-0.3 0-0.5-0.2-0.5-0.5 0-0.3 0.2-0.5 0.5-0.5z"/>
			<path class="s8" d="m30.5 9c-0.3 0-0.5 0.2-0.5 0.5v4c0 0.3 0.2 0.5 0.5 0.5 0.3 0 0.5-0.2 0.5-0.5v-1.5h1.5c0.8 0 1.5-0.7 1.5-1.5 0-0.8-0.7-1.5-1.5-1.5zm2.5 1.5c0 0.3-0.2 0.5-0.5 0.5h-1.5v-1h1.5c0.3 0 0.5 0.2 0.5 0.5z"/>
			<path class="s8" d="m37.5 10c0.3 0 0.5-0.2 0.5-0.5 0-0.3-0.2-0.5-0.5-0.5h-2c-0.3 0-0.5 0.2-0.5 0.5 0 0.3 0.2 0.5 0.5 0.5h0.5v3h-0.5c-0.3 0-0.5 0.2-0.5 0.5 0 0.3 0.2 0.5 0.5 0.5h2c0.3 0 0.5-0.2 0.5-0.5 0-0.3-0.2-0.5-0.5-0.5h-0.5v-3z"/>
			<path class="s8" d="m41.5 14c0.3 0 0.5-0.2 0.5-0.5v-3.5h1.5c0.3 0 0.5-0.2 0.5-0.5 0-0.3-0.2-0.5-0.5-0.5h-4c-0.3 0-0.5 0.2-0.5 0.5 0 0.3 0.2 0.5 0.5 0.5h1.5v3.5c0 0.3 0.2 0.5 0.5 0.5z"/>
			<path class="s8" d="m46.5 9c-0.2 0-0.4 0.1-0.4 0.3l-2 4c-0.2 0.2-0.1 0.5 0.2 0.6q0.1 0.1 0.2 0.1c0.2 0 0.4-0.1 0.4-0.3l0.4-0.7q0.1 0 0.2 0h2q0.1 0 0.2 0l0.4 0.7c0 0.2 0.2 0.3 0.4 0.3q0.1 0 0.2-0.1c0.3-0.1 0.4-0.4 0.2-0.6l-2-4c0-0.2-0.2-0.3-0.4-0.3zm-0.7 3l0.7-1.4 0.7 1.4z"/>
			<path class="s8" d="m50.5 9c-0.3 0-0.5 0.2-0.5 0.5v4c0 0.3 0.2 0.5 0.5 0.5h2c0.3 0 0.5-0.2 0.5-0.5 0-0.3-0.2-0.5-0.5-0.5h-1.5v-3.5c0-0.3-0.2-0.5-0.5-0.5z"/>
			<path class="s8" d="m34.5 51c-0.3 0-0.5 0.2-0.5 0.5v1c0 0.3 0.2 0.5 0.5 0.5 0.3 0 0.5-0.2 0.5-0.5v-1c0-0.3-0.2-0.5-0.5-0.5z"/>
			<path class="s8" d="m14.5 46c-0.3 0-0.5 0.2-0.5 0.5v5c0 0.3 0.2 0.5 0.5 0.5h15c0.3 0 0.5-0.2 0.5-0.5v-5c0-0.3-0.2-0.5-0.5-0.5zm9.5 1v4h-4v-4zm-9 0h4v4h-4zm14 4h-4v-4h4z"/>
			<path class="s8" d="m47.5 46c-1.9 0-3.5 1.6-3.5 3.5 0 1.9 1.6 3.5 3.5 3.5 1.9 0 3.5-1.6 3.5-3.5 0-1.9-1.6-3.5-3.5-3.5zm0 6c-1.4 0-2.5-1.1-2.5-2.5 0-1.4 1.1-2.5 2.5-2.5 1.4 0 2.5 1.1 2.5 2.5 0 1.4-1.1 2.5-2.5 2.5z"/>
		</g>
	</g>
	<g id="_x39_._blood_donation">
	</g>
	<g id="_x38_._charity">
	</g>
	<g id="_x37_._test_tube">
	</g>
	<g id="_x36_._expenses">
	</g>
	<g id="_x35_._folder">
	</g>
	<g id="_x34_._insurance">
	</g>
	<g id="_x33_._dna">
	</g>
	<g id="_x32_._health_report">
	</g>
	<g id="_x31_._ambulance">
	</g>
</svg>