<svg version="1.2" xmlns="http://www.w3.org/2000/svg" viewBox="0 0 64 64" width="32" height="32">
	<title>fire_extinguisher</title>
	<style>
		.s0 { fill: #f03332 } 
		.s1 { fill: #e4e4e4 } 
		.s2 { fill: #595959 } 
		.s3 { fill: #fcfcfc } 
		.s4 { fill: #adadad } 
		.s5 { fill: #ae2a25 } 
		.s6 { fill: #ca2a28 } 
		.s7 { fill: #474747 } 
		.s8 { fill: #8b2500 } 
		.s9 { fill: #c1c1c1 } 
		.s10 { fill: #f6fafd } 
		.s11 { fill: #000000 } 
	</style>
	<g id="_08-fire_extingguisher">
		<path class="s0" d="m62 38h0.1q-0.1 0.4-0.3 0.7-0.1 0.4-0.3 0.7-0.2 0.3-0.4 0.6-0.3 0.3-0.5 0.6l-3.6-2.1q0.1-0.3 0.3-0.6 0.1-0.3 0.3-0.6 0.1-0.3 0.2-0.6 0.1-0.4 0.2-0.7z"/>
		<path class="s1" d="m63 30q0 1 0 2-0.1 1-0.2 2-0.1 1.1-0.3 2-0.2 1-0.4 2h-0.1l-4-2q0.3-0.7 0.4-1.5 0.2-0.7 0.4-1.5 0.1-0.7 0.1-1.5 0.1-0.7 0.1-1.5c0-7-7.5-14-18-14v-4c11 0 22 8.6 22 18z"/>
		<path class="s2" d="m61 40.9q0.2 0.1 0.5 0.4 0.2 0.2 0.3 0.5 0.1 0.3 0.2 0.6 0 0.3 0 0.7l-1.8 8.9-12.2-6.2 6-7.1q0.3-0.3 0.6-0.4 0.3-0.2 0.6-0.3 0.4 0 0.7 0 0.4 0.1 0.7 0.3l0.4 0.2 3.6 2.1z"/>
		<path class="s0" d="m46 45.8v15.2q0 0.4-0.2 0.8-0.1 0.3-0.4 0.6-0.3 0.3-0.6 0.4-0.4 0.2-0.8 0.2h-24q-0.4 0-0.8-0.2-0.3-0.1-0.6-0.4-0.3-0.3-0.4-0.6-0.2-0.4-0.2-0.8v-28c0-1.3 0.3-2.6 0.8-3.8 0.5-1.2 1.2-2.3 2.1-3.3 1-0.9 2.1-1.6 3.3-2.1 1.2-0.5 2.5-0.8 3.8-0.8h8c1.3 0 2.6 0.3 3.8 0.8 1.2 0.5 2.3 1.2 3.3 2.1 0.9 1 1.6 2.1 2.1 3.3 0.5 1.2 0.8 2.5 0.8 3.8zm-8-0.8v-8l-3 4c-2-1-2-8-2-8-4 0-4 10-4 10l-3-4v6c0 1.6 0.6 3.2 1.8 4.3 1.1 1.1 2.6 1.7 4.2 1.7 1.6 0 3.1-0.6 4.2-1.7 1.2-1.1 1.8-2.7 1.8-4.3z"/>
		<path class="s2" d="m41 12v4h-4q0-0.6-0.1-1.1-0.2-0.6-0.4-1.1-0.3-0.6-0.7-1-0.3-0.5-0.8-0.8z"/>
		<path class="s3" d="m38 37v8c0 1.6-0.6 3.1-1.8 4.2-1.1 1.2-2.6 1.8-4.2 1.8-1.6 0-3.1-0.6-4.2-1.8-1.2-1.1-1.8-2.6-1.8-4.2v-6l3 4c0 0 0-10 4-10 0 0 0 7 2 8z"/>
		<path class="s2" d="m37 16v7h-10v-7c0 1.3 0.5 2.6 1.5 3.5 0.9 1 2.2 1.5 3.5 1.5 1.3 0 2.6-0.5 3.5-1.5 1-0.9 1.5-2.2 1.5-3.5z"/>
		<path class="s4" d="m35 12c1.4 1 2.1 2.7 2 4.4-0.2 1.8-1.2 3.3-2.8 4.1-1.5 0.7-3.4 0.7-4.8-0.2-1.5-1-2.4-2.6-2.4-4.3q0-0.1 0-0.2 0-0.2 0-0.3 0-0.1 0.1-0.2 0-0.2 0-0.3 0.2-0.8 0.6-1.6 0.5-0.7 1.1-1.3 0.7-0.5 1.5-0.8 0.8-0.3 1.7-0.3 0.4 0 0.8 0.1 0.4 0 0.8 0.2 0.4 0.1 0.7 0.3 0.4 0.2 0.7 0.4zm-1 4c0-0.8-0.5-1.5-1.2-1.8-0.8-0.4-1.6-0.2-2.2 0.4-0.6 0.6-0.8 1.4-0.4 2.2 0.3 0.7 1 1.2 1.8 1.2q0.4 0 0.8-0.2 0.3-0.1 0.6-0.4 0.3-0.3 0.4-0.6 0.2-0.4 0.2-0.8z"/>
		<path class="s0" d="m28 4l4 7q-0.9 0-1.7 0.3-0.8 0.3-1.5 0.8-0.6 0.6-1.1 1.3-0.4 0.8-0.6 1.6h-0.1l-5-3v-4l-11.8-3.6q-0.2-0.1-0.5-0.3-0.2-0.1-0.4-0.3-0.1-0.3-0.2-0.5-0.1-0.3-0.1-0.6v-1.7h13z"/>
		<path class="s5" d="m27 15h0.1q0 0.1 0 0.3-0.1 0.1-0.1 0.2 0 0.1 0 0.3 0 0.1 0 0.2v1l-4.7-1.3q-0.5-0.2-1.1-0.3-0.6-0.1-1.2-0.1-0.6 0-1.2 0-0.6 0.1-1.2 0.2l-5.3 1q0 0.1-0.1 0.1 0 0-0.1 0 0 0-0.1 0 0 0-0.1 0c-0.5 0-0.9-0.2-1.3-0.5-0.3-0.4-0.6-0.8-0.6-1.3 0-0.5 0.1-1 0.4-1.4 0.3-0.3 0.7-0.6 1.2-0.7l10.4-1.7v1z"/>
		<path class="s6" d="m22 47v-18q0-0.6 0.1-1.2 0.1-0.7 0.2-1.3 0.2-0.6 0.4-1.2 0.2-0.5 0.5-1.1-1.2 0.7-2.1 1.6-1 0.9-1.7 2.1-0.7 1.2-1 2.5-0.4 1.3-0.4 2.6v28q0 0.4 0.2 0.8 0.1 0.3 0.4 0.6 0.3 0.3 0.6 0.4 0.4 0.2 0.8 0.2h24q0.4 0 0.8-0.2 0.3-0.1 0.6-0.4 0.3-0.3 0.4-0.6 0.2-0.4 0.2-0.8v-2h-12c-1.6 0-3.1-0.3-4.6-0.9-1.4-0.6-2.8-1.5-3.9-2.6-1.1-1.1-2-2.5-2.6-3.9-0.6-1.5-0.9-3-0.9-4.6z"/>
		<path class="s7" d="m32 21q-0.9 0-1.7-0.3-0.8-0.3-1.5-0.8-0.6-0.6-1.1-1.3-0.4-0.8-0.6-1.6 0 0.1 0 0.3-0.1 0.1-0.1 0.2 0 0.1 0 0.2 0 0.2 0 0.3c0 1.4 0.6 2.8 1.6 3.7 1.1 1 2.5 1.4 3.9 1.3 1.4-0.1 2.7-0.9 3.5-2 0.9-1.2 1.2-2.6 0.9-4q-0.2 0.9-0.6 1.6-0.5 0.7-1.1 1.3-0.7 0.5-1.5 0.8-0.8 0.3-1.7 0.3z"/>
		<path class="s8" d="m27 15l-2.1-1.2q-0.1 0.1-0.2 0.3-0.2 0.1-0.3 0.2-0.2 0.1-0.5 0.1-0.2 0-0.3-0.1l-0.9-0.4q-0.4-0.3-0.8-0.4-0.5-0.1-0.9-0.2-0.5-0.1-1-0.1-0.4 0-0.9 0.1l-9.1 1.4q0 0.4 0.2 0.7 0.1 0.4 0.4 0.6 0.3 0.3 0.6 0.4 0.4 0.2 0.7 0.2 0.1 0 0.1 0 0.1 0 0.1 0 0.1 0 0.1 0 0.1 0 0.1-0.1l5.3-1q0.6-0.1 1.2-0.2 0.6 0 1.2 0 0.6 0 1.2 0.1 0.6 0.1 1.1 0.3l4.7 1.3v-1q0-0.1 0-0.2 0-0.2 0-0.3 0-0.1 0.1-0.2 0-0.2 0-0.3z"/>
		<path class="s6" d="m30.9 9.1q-0.7 0.1-1.3 0.3-0.6 0.3-1.2 0.6-0.6 0.4-1.1 0.8-0.5 0.5-0.9 1l-0.4-0.2q-0.3-0.2-0.4-0.3-0.2-0.2-0.3-0.4-0.2-0.3-0.2-0.5-0.1-0.3-0.1-0.5v-2.3q0-0.4-0.1-0.7-0.1-0.3-0.3-0.6-0.2-0.2-0.5-0.4-0.3-0.2-0.6-0.3l-9-2.2q-0.3-0.1-0.6-0.3-0.3-0.2-0.5-0.4-0.2-0.3-0.3-0.6-0.1-0.3-0.1-0.7v-0.4h-4v1.7q0 0.3 0.1 0.6 0.1 0.2 0.2 0.5 0.2 0.2 0.4 0.3 0.3 0.2 0.5 0.3l11.8 3.6v4l3.3 2 1.7 1h0.1q0.2-0.8 0.6-1.6 0.5-0.7 1.1-1.3 0.7-0.5 1.5-0.8 0.8-0.3 1.7-0.3z"/>
		<path class="s6" d="m58 36q-0.1 0.3-0.2 0.7-0.1 0.3-0.2 0.6-0.2 0.3-0.3 0.6-0.2 0.3-0.3 0.6l1.6 1q0.6-1.4 1-2.7z"/>
		<path class="s9" d="m41.2 14.1q0 0 0 0-0.1 0-0.1 0 0 0 0 0-0.1 0-0.1 0v1.9c10.5 0 18 7 18 14q0 0.8-0.1 1.5 0 0.8-0.1 1.5-0.2 0.8-0.4 1.5-0.1 0.8-0.4 1.5l1.6 0.8c6.2-19-13.2-22-18.4-22.7z"/>
		<path class="s7" d="m39.6 12.8l-0.3-0.8h-4.3q0.5 0.3 0.8 0.8 0.4 0.4 0.7 1 0.2 0.5 0.4 1.1 0.1 0.5 0.1 1.1h4v-1.9q-0.2-0.1-0.5-0.2-0.2-0.1-0.4-0.3-0.2-0.2-0.3-0.4-0.1-0.2-0.2-0.4z"/>
		<path class="s7" d="m61 40.9l-0.3-0.2-1.2 3.3q-0.3 0.8-0.9 1.4-0.5 0.6-1.3 0.9-0.8 0.3-1.6 0.3-0.8 0-1.6-0.3l-4.7-2.1-1.4 1.6 12.2 6.2 1.8-8.9q0-0.4 0-0.7-0.1-0.3-0.2-0.6-0.1-0.3-0.3-0.5-0.3-0.3-0.5-0.4z"/>
		<path fill-rule="evenodd" class="s10" d="m41.3 30.3c-0.6 0.7-1.9 0.4-2.8-0.4-0.9-0.9-1.1-2.2-0.4-2.8 0.6-0.7 1.9-0.5 2.7 0.4 0.9 0.9 1.1 2.2 0.5 2.8z"/>
		<path fill-rule="evenodd" class="s10" d="m42.5 33.5c-0.3 0.3-1 0.2-1.4-0.2-0.5-0.5-0.6-1.1-0.2-1.4 0.3-0.3 0.9-0.2 1.4 0.2 0.4 0.5 0.5 1.1 0.2 1.4z"/>
		<path fill-rule="evenodd" class="s10" d="m56.5 41.5c-0.3 0.3-1 0.2-1.4-0.2-0.5-0.5-0.6-1.1-0.2-1.4 0.3-0.3 0.9-0.2 1.4 0.2 0.4 0.5 0.5 1.1 0.2 1.4z"/>
		<path fill-rule="evenodd" class="s11" d="m17 38h2v2h-2z"/>
		<path class="s11" d="m45 61q0 0.2-0.1 0.4-0.1 0.2-0.2 0.3-0.1 0.1-0.3 0.2-0.2 0.1-0.4 0.1h-24q-0.2 0-0.4-0.1-0.2-0.1-0.3-0.2-0.1-0.1-0.2-0.3-0.1-0.2-0.1-0.4v-19h-2v19q0 0.6 0.2 1.1 0.3 0.6 0.7 1 0.4 0.4 1 0.7 0.5 0.2 1.1 0.2h24q0.6 0 1.1-0.2 0.6-0.3 1-0.7 0.4-0.4 0.7-1 0.2-0.5 0.2-1.1v-3h-2z"/>
		<path class="s11" d="m29 16c0 1.2 0.7 2.3 1.9 2.8 1.1 0.4 2.4 0.2 3.2-0.7 0.9-0.8 1.1-2.1 0.7-3.2-0.5-1.2-1.6-1.9-2.8-1.9q-0.6 0-1.1 0.2-0.6 0.3-1 0.7-0.4 0.4-0.7 1-0.2 0.5-0.2 1.1zm4 0c0 0.4-0.2 0.8-0.6 0.9-0.4 0.2-0.8 0.1-1.1-0.2-0.3-0.3-0.4-0.7-0.2-1.1 0.1-0.4 0.5-0.6 0.9-0.6q0.2 0 0.4 0.1 0.2 0.1 0.3 0.2 0.1 0.1 0.2 0.3 0.1 0.2 0.1 0.4z"/>
		<path fill-rule="evenodd" class="s11" d="m24 8h2v2h-2z"/>
		<path class="s11" d="m62 40.4q2-2.9 2-10.4c0-9.8-11.2-19-23-19h-5.7q-0.3-0.2-0.6-0.4-0.3-0.1-0.7-0.3-0.3-0.1-0.7-0.2-0.3 0-0.7-0.1l-3.7-6.5q-0.1-0.1-0.1-0.1-0.1-0.1-0.1-0.1-0.1-0.1-0.1-0.1-0.1-0.1-0.2-0.1l-6-3q0 0-0.1 0 0-0.1-0.1-0.1 0 0-0.1 0 0 0-0.1 0h-13q-0.2 0-0.4 0.1-0.2 0.1-0.3 0.2-0.1 0.1-0.2 0.3-0.1 0.2-0.1 0.4v1.7q0 0.5 0.1 0.9 0.2 0.4 0.4 0.7 0.3 0.4 0.6 0.7 0.4 0.2 0.8 0.3l11.1 3.4v3.3q0 0.1 0 0.3 0.1 0.1 0.1 0.2 0.1 0.1 0.2 0.2 0.1 0.1 0.2 0.2l4.5 2.7q0 0 0 0.1l-3.4-1q-0.6-0.2-1.3-0.3-0.6-0.1-1.3-0.1-0.6 0-1.3 0-0.6 0.1-1.3 0.2l-5.3 1.1q-0.4 0-0.7-0.2-0.3-0.2-0.4-0.6 0-0.4 0.2-0.7 0.2-0.3 0.6-0.4l7.4-1.2-0.4-2-7.3 1.2c-0.8 0.2-1.5 0.6-1.9 1.3-0.5 0.6-0.6 1.4-0.5 2.2 0.1 0.7 0.6 1.4 1.2 1.8 0.7 0.5 1.4 0.7 2.2 0.5l5.3-1q0.5-0.1 1.1-0.2 0.5 0 1 0 0.6 0 1.1 0.1 0.5 0.1 1.1 0.2l3.9 1.2v4.4q-1.9 0.3-3.6 1.3-1.6 1-2.9 2.5-1.2 1.5-1.8 3.3-0.7 1.8-0.7 3.7v3h2v-3c0-1.2 0.2-2.4 0.7-3.4 0.4-1.1 1.1-2.1 1.9-3 0.9-0.8 1.9-1.5 3-1.9 1-0.5 2.2-0.7 3.4-0.7h8c1.2 0 2.4 0.2 3.4 0.7 1.1 0.4 2.1 1.1 3 1.9 0.8 0.9 1.5 1.9 1.9 3 0.5 1 0.7 2.2 0.7 3.4v23h2v-23q0-1.9-0.7-3.7-0.6-1.8-1.8-3.3-1.3-1.5-2.9-2.5-1.7-1-3.6-1.3v-5.2h3q0.4 0 0.7 0 0.4 0 0.7 0 0.4 0.1 0.8 0.1 0.3 0 0.7 0.1l0.2-2q-1-0.1-2.1-0.2v-2c10.4 0.5 20 8.5 20 17q0 0.8 0 1.7 0 0.8-0.1 1.6-0.1 0.8-0.2 1.7-0.1 0.8-0.3 1.6l-2.2-1.1q0.2-0.7 0.4-1.4 0.1-0.6 0.2-1.3 0.1-0.7 0.1-1.4 0.1-0.7 0.1-1.4c0-6.5-5.8-12.6-13.8-14.4l-0.4 1.9c7.1 1.7 12.2 6.9 12.2 12.5q0 0.9-0.1 1.8-0.1 1-0.3 1.9-0.2 0.9-0.4 1.7-0.3 0.9-0.7 1.8-0.4-0.2-0.9-0.2-0.4 0-0.8 0.1-0.5 0.1-0.9 0.4-0.3 0.2-0.6 0.6l-6.1 7q-0.1 0.2-0.2 0.4 0 0.2 0 0.4 0.1 0.3 0.2 0.5 0.1 0.1 0.3 0.2l12.3 6.3q0.2 0.1 0.4 0.1 0.2 0 0.5-0.1 0.2-0.1 0.3-0.3 0.1-0.2 0.2-0.4l1.7-8.9q0.1-0.4 0.1-0.8 0-0.4-0.1-0.8-0.2-0.4-0.4-0.7-0.2-0.3-0.5-0.6zm-22-25.4h-2.1q0-0.3-0.1-0.5-0.1-0.3-0.2-0.5-0.1-0.3-0.2-0.5-0.1-0.3-0.2-0.5h2.8zm-4 1c0 1.6-1 3.1-2.5 3.7-1.5 0.6-3.2 0.3-4.3-0.9-1.2-1.1-1.5-2.8-0.9-4.3 0.6-1.5 2.1-2.5 3.7-2.5q0.8 0 1.5 0.3 0.8 0.3 1.3 0.9 0.6 0.5 0.9 1.3 0.3 0.7 0.3 1.5zm-13-4.6v-3.4q0-0.2-0.1-0.3 0-0.2-0.1-0.3-0.1-0.1-0.2-0.2-0.2-0.1-0.3-0.2l-11.8-3.6q-0.1 0-0.2-0.1-0.1 0-0.2-0.1 0-0.1-0.1-0.2 0-0.2 0-0.3v-0.7h11.8l5.5 2.8 3.1 5.4q-0.6 0.2-1.2 0.5-0.6 0.3-1.1 0.8-0.5 0.4-0.9 0.9-0.4 0.5-0.7 1.2zm9 10.5h-4v-1.5q0.8 0.7 1.9 1.1 1 0.4 2.1 0.4 1.1 0 2.2-0.4 1-0.4 1.8-1.1v1.5zm28.8 16.5q0 0.1-0.1 0.2 0 0.2-0.1 0.3 0 0.1-0.1 0.2-0.1 0.1-0.1 0.1l-2.1-1.2q0.2-0.3 0.3-0.7zm0.2 4.4l-1.5 7.6-9.9-5.1 5.2-6q0.1-0.2 0.3-0.3 0.1 0 0.3-0.1 0.2 0 0.3 0 0.2 0.1 0.4 0.1l4.4 2.6q0.1 0.1 0.2 0.2 0.1 0.2 0.2 0.3 0.1 0.2 0.1 0.3 0 0.2 0 0.4z"/>
		<path class="s11" d="m39 45v-8q0-0.3-0.2-0.6-0.2-0.2-0.5-0.3-0.3-0.1-0.6-0.1-0.3 0.1-0.5 0.4l-2.3 3q-0.2-0.8-0.4-1.6-0.2-0.7-0.3-1.6-0.1-0.8-0.2-1.6 0-0.8 0-1.6 0-0.2-0.1-0.4-0.1-0.2-0.2-0.3-0.1-0.1-0.3-0.2-0.2-0.1-0.4-0.1c-3.4 0-4.5 4.9-4.8 8.2l-1.4-1.8q-0.2-0.3-0.5-0.4-0.3 0-0.6 0.1-0.3 0.1-0.5 0.3-0.2 0.3-0.2 0.6v6c0 1.9 0.7 3.6 2.1 4.9 1.3 1.4 3 2.1 4.9 2.1 1.9 0 3.6-0.7 4.9-2.1 1.4-1.3 2.1-3 2.1-4.9zm-12 0v-3l1.2 1.6q0.2 0.3 0.5 0.4 0.3 0 0.6-0.1 0.3-0.1 0.5-0.3 0.2-0.3 0.2-0.6c0-3 0.7-7.2 2-8.6 0.2 2.5 0.6 6.5 2.6 7.5q0.1 0.1 0.3 0.1 0.2 0 0.3 0 0.2-0.1 0.3-0.2 0.2-0.1 0.3-0.2l1.2-1.6v5c0 1.3-0.5 2.6-1.5 3.5-0.9 1-2.2 1.5-3.5 1.5-1.3 0-2.6-0.5-3.5-1.5-1-0.9-1.5-2.2-1.5-3.5z"/>
	</g>
</svg>