<svg xmlns="http://www.w3.org/2000/svg" viewBox="0 0 64 64"><title>08-fire extingguisher</title><g id="_08-fire_extingguisher" data-name="08-fire extingguisher"><path d="M62,38l.07.02a5.692,5.692,0,0,1-1.51,2.59l-3.57-2.09a16.583,16.583,0,0,0,1.04-2.5Z" style="fill:#f03332"/><path d="M63,30a27.364,27.364,0,0,1-.93,8.02L62,38l-3.97-1.98A19.509,19.509,0,0,0,59,30c0-7-7.5-14-18-14V12C52.05,12,63,20.6,63,30Z" style="fill:#e4e4e4"/><path d="M60.97,40.85a2.1,2.1,0,0,1,.99,2.21L60.21,52,48,45.76l6.03-7.05a2.011,2.011,0,0,1,2.54-.44l.42.25,3.57,2.09Z" style="fill:#595959"/><path d="M46,45.76V61a2.006,2.006,0,0,1-2,2H20a2.006,2.006,0,0,1-2-2V33A10,10,0,0,1,28,23h8A10,10,0,0,1,46,33ZM38,45V37l-3,4c-2-1-2-8-2-8-4,0-4,10-4,10l-3-4v6a6,6,0,0,0,12,0Z" style="fill:#f03332"/><path d="M41,12v4H37a5.01,5.01,0,0,0-2-4Z" style="fill:#595959"/><path d="M38,37v8a6,6,0,0,1-12,0V39l3,4s0-10,4-10c0,0,0,7,2,8Z" style="fill:#fcfcfc"/><path d="M37,16v7H27V16a5,5,0,0,0,10,0Z" style="fill:#595959"/><path d="M35,12a5,5,0,1,1-8,4,4.619,4.619,0,0,1,.1-.99A5,5,0,0,1,32,11,4.941,4.941,0,0,1,35,12Zm-1,4a2,2,0,1,0-2,2A2.006,2.006,0,0,0,34,16Z" style="fill:#adadad"/><path d="M28,4l4,7a5,5,0,0,0-4.9,4.01L27,15l-5-3V8L10.22,4.37A1.713,1.713,0,0,1,9,2.73V1H22Z" style="fill:#f03332"/><path d="M27,15l.1.01A4.619,4.619,0,0,0,27,16v1l-4.67-1.33a9.881,9.881,0,0,0-4.71-.19l-5.31,1.06a1.7,1.7,0,0,1-.38.04,1.938,1.938,0,0,1-.31-3.85L22,11v1Z" style="fill:#ae2a25"/><path d="M22,47V29a9.95,9.95,0,0,1,1.216-4.781A10,10,0,0,0,18,33V61a2.006,2.006,0,0,0,2,2H44a2.006,2.006,0,0,0,2-2V59H34A12.035,12.035,0,0,1,22,47Z" style="fill:#ca2a28"/><path d="M32,21a5,5,0,0,1-4.9-4v.005A4.619,4.619,0,0,0,27,18a5,5,0,1,0,9.9-.981A5,5,0,0,1,32,21Z" style="fill:#474747"/><path d="M27,15l-2.079-1.247a1,1,0,0,1-1.368.523l-.845-.422a6,6,0,0,0-3.6-.564l-9.107,1.4A1.937,1.937,0,0,0,11.93,16.58a1.7,1.7,0,0,0,.38-.04l5.31-1.06a9.881,9.881,0,0,1,4.71.19L27,17V16a4.619,4.619,0,0,1,.1-.99Z" style="fill:#8b2500"/><path d="M30.91,9.093a6.984,6.984,0,0,0-4.524,2.739l-.415-.249A2,2,0,0,1,25,9.868V7.562a2,2,0,0,0-1.515-1.941l-8.97-2.242A2,2,0,0,1,13,1.438V1H9V2.73a1.713,1.713,0,0,0,1.22,1.64L22,8v4l3.3,1.979L27,15l.1.01A5.045,5.045,0,0,1,32,11Z" style="fill:#ca2a28"/><path d="M58.03,36.02a16.583,16.583,0,0,1-1.04,2.5l1.658.971c.381-.92.72-1.813.995-2.667Z" style="fill:#ca2a28"/><path d="M41.239,14.133A1.916,1.916,0,0,1,41,14.067V16c10.5,0,18,7,18,14a19.509,19.509,0,0,1-.97,6.02l1.613.8C65.769,17.8,46.417,14.814,41.239,14.133Z" style="fill:#c1c1c1"/><path d="M39.594,12.782,39.333,12H35a5.01,5.01,0,0,1,2,4h4V14.067A1.985,1.985,0,0,1,39.594,12.782Z" style="fill:#474747"/><path d="M60.97,40.85l-.237-.139-1.242,3.314a4,4,0,0,1-5.37,2.251l-4.755-2.113L48,45.76,60.21,52l1.75-8.94A2.1,2.1,0,0,0,60.97,40.85Z" style="fill:#474747"/><ellipse cx="39.684" cy="28.695" rx="1.642" ry="2.286" transform="translate(-8.664 36.482) rotate(-45.02)" style="fill:#f6fafd"/><ellipse cx="41.682" cy="32.708" rx="0.825" ry="1.148" transform="translate(-10.918 39.071) rotate(-45.02)" style="fill:#f6fafd"/><ellipse cx="55.682" cy="40.708" rx="0.825" ry="1.148" transform="translate(-12.473 51.319) rotate(-45.02)" style="fill:#f6fafd"/><rect x="17" y="38" width="2" height="2"/><path d="M45,61a1,1,0,0,1-1,1H20a1,1,0,0,1-1-1V42H17V61a3,3,0,0,0,3,3H44a3,3,0,0,0,3-3V58H45Z"/><path d="M29,16a3,3,0,1,0,3-3A3,3,0,0,0,29,16Zm4,0a1,1,0,1,1-1-1A1,1,0,0,1,33,16Z"/><rect x="24" y="8" width="2" height="2"/><path d="M62.024,40.4C63.331,38.461,64,34.985,64,30c0-9.766-11.178-19-23-19H35.31a5.958,5.958,0,0,0-2.713-.97L28.868,3.5a1,1,0,0,0-.421-.4l-6-3A1,1,0,0,0,22,0H9A1,1,0,0,0,8,1V2.726A2.713,2.713,0,0,0,9.924,5.331L21,8.739V12a1,1,0,0,0,.485.857l4.536,2.722c0,.033,0,.067-.005.1l-3.411-.974a11.052,11.052,0,0,0-5.179-.21l-5.307,1.062a.935.935,0,1,1-.337-1.84l7.383-1.231-.329-1.972-7.383,1.23a2.935,2.935,0,1,0,1.058,5.774l5.308-1.062a9.05,9.05,0,0,1,4.237.171L26,17.754v4.437A11.012,11.012,0,0,0,17,33v3h2V33a9.011,9.011,0,0,1,9-9h8a9.011,9.011,0,0,1,9,9V56h2V33a11.012,11.012,0,0,0-9-10.809V17h3a21.968,21.968,0,0,1,2.869.187l.262-1.983c-.7-.093-1.413-.154-2.131-.183v-2C52.416,13.512,62,21.532,62,30a30.456,30.456,0,0,1-.579,6.592l-2.194-1.1A20.237,20.237,0,0,0,60,30c0-6.526-5.794-12.59-13.777-14.419l-.447,1.949C52.859,19.153,58,24.4,58,30a18.244,18.244,0,0,1-1.473,7.166,3.011,3.011,0,0,0-3.259.9L47.24,45.105a1,1,0,0,0,.3,1.541L59.757,52.89a1,1,0,0,0,1.437-.7l1.748-8.936A3.1,3.1,0,0,0,62.024,40.4ZM40,15H37.91a5.966,5.966,0,0,0-.722-2H40Zm-4,1a4,4,0,1,1-4-4A4,4,0,0,1,36,16ZM23,11.434V8a1,1,0,0,0-.706-.956L10.513,3.419A.722.722,0,0,1,10,2.726V2H21.764l5.518,2.759L30.4,10.222a6.02,6.02,0,0,0-3.876,3.329ZM32,22H28V20.46a5.965,5.965,0,0,0,8,0V22ZM60.807,38.522a5.007,5.007,0,0,1-.446.81l-2.069-1.209c.093-.209.193-.45.3-.711Zm.172,4.35-1.493,7.633-9.9-5.063,5.2-6.081a1,1,0,0,1,1.277-.223l4.4,2.573A1.1,1.1,0,0,1,60.979,42.872Z"/><path d="M39,45V37a1,1,0,0,0-1.8-.6l-2.264,3.018A19.429,19.429,0,0,1,34,33a1,1,0,0,0-1-1c-3.429,0-4.508,4.915-4.847,8.2L26.8,38.4A1,1,0,0,0,25,39v6a7,7,0,0,0,14,0ZM27,45V42l1.2,1.6A1,1,0,0,0,30,43c0-3,.655-7.191,2.036-8.553.118,2.465.609,6.493,2.517,7.448a1,1,0,0,0,1.247-.3L37,40v5a5,5,0,0,1-10,0Z"/></g></svg>