<svg version="1.2" xmlns="http://www.w3.org/2000/svg" viewBox="0 0 512 512" width="32" height="32">
	<title>shelter</title>
	<style>
		.s0 { fill: #d5dced } 
		.s1 { fill: #c7cfe2 } 
		.s2 { fill: #00c3ff } 
		.s3 { fill: #00aaf0 } 
		.s4 { fill: #78d7ff } 
		.s5 { fill: #000000 } 
	</style>
	<path class="s0" d="m256 502.2c59.7-17.7 137.7-69.9 162.1-106.2 53-78.4 65.7-260.9 67.9-301.5 0.3-4.6-3-8.5-7.4-9.2-107.8-15.4-187.7-57.8-213.6-73-5.6-3.3-12.4-3.3-18 0-25.9 15.2-105.8 57.6-213.6 73-4.4 0.7-7.7 4.6-7.4 9.2 2.2 40.6 14.9 223.1 67.9 301.5 24.4 36.3 102.4 88.5 162.1 106.2z"/>
	<path class="s1" d="m247 12.3c-25.9 15.1-105.8 57.6-213.6 73-4.4 0.7-7.7 4.6-7.4 9.2 2.2 40.6 14.9 223.1 67.9 301.5 24.4 36.3 102.4 88.5 162.1 106.2v-492.4c-3.1 0-6.2 0.8-9 2.5z"/>
	<path class="s2" d="m256 37.7c-30 17.2-103.7 54.4-202.5 71.3 6.5 95.7 26.2 218.5 62.4 272.2 18.8 27.8 85.4 74.6 140.1 93.1 54.7-18.5 121.3-65.3 140.1-93.1 36.2-53.7 55.9-176.5 62.4-272.2-98.8-16.9-172.5-54.1-202.5-71.3z"/>
	<path class="s3" d="m53.5 109c6.5 95.7 26.2 218.5 62.4 272.2 18.8 27.8 85.4 74.6 140.1 93.1v-436.6c-30 17.2-103.7 54.4-202.5 71.3z"/>
	<path class="s4" d="m397.6 292.4q-1.4 0-2.8-0.3c-5.9-1.5-9.5-7.5-8-13.5 6.3-24.7 11.7-52.8 16.1-83.6 0.9-6.1 6.5-10.3 12.5-9.4 6.1 0.9 10.2 6.5 9.4 12.5-4.5 31.6-10.1 60.5-16.5 86-1.3 5-5.8 8.3-10.7 8.3zm21.6-128.3q-0.5 0-1.1 0c-6.1-0.7-10.5-6.1-9.9-12.2q0.8-7.5 1.5-15.2c0.6-6.1 5.9-10.6 12-10 6.1 0.5 10.6 5.9 10 12q-0.7 7.8-1.5 15.5c-0.6 5.7-5.4 9.9-11 9.9z"/>
	<path class="s5" d="m256 512q-1.2 0-2.4-0.3c-59.5-17.7-140.5-70.9-166.6-109.5-23.1-34.3-41.4-90.8-54.3-168.2-10.1-60.6-13.8-116.4-15-137.5-0.5-8.9 5.8-16.6 14.5-17.9 129-18.5 218.3-76.6 219.2-77.2 2.8-1.9 6.4-1.9 9.2 0 0.9 0.6 90.4 58.8 219.2 77.2 8.7 1.3 15 9 14.5 17.9-1.2 21.1-4.9 76.9-15 137.5-12.9 77.4-31.2 133.9-54.3 168.2-26.1 38.6-107.1 91.8-166.6 109.5q-1.2 0.3-2.4 0.3zm0-493.9c-20.2 12.4-103.9 60.1-221.4 77-0.1 0-0.3 0.1-0.3 0.5 2 36.1 14.4 220.3 66.4 297.3 23.6 34.9 99.9 85 155.3 102.1 55.4-17.1 131.7-67.2 155.3-102.1 52-77 64.4-261.2 66.4-297.3 0-0.4-0.1-0.5-0.3-0.5-117.5-16.9-201.2-64.6-221.4-77z"/>
	<path class="s5" d="m256 467.8c-4.6 0-8.3-3.7-8.3-8.3v-353.9c0-4.6 3.7-8.3 8.3-8.3 4.6 0 8.3 3.7 8.3 8.3v353.9c0 4.6-3.7 8.3-8.3 8.3z"/>
	<path class="s5" d="m256 78.5c-4.6 0-8.3-3.7-8.3-8.3v-17.7c0-4.6 3.7-8.3 8.3-8.3 4.6 0 8.3 3.7 8.3 8.3v17.7c0 4.6-3.7 8.3-8.3 8.3z"/>
	<g>
	</g>
	<g>
	</g>
	<g>
	</g>
	<g>
	</g>
	<g>
	</g>
	<g>
	</g>
	<g>
	</g>
	<g>
	</g>
	<g>
	</g>
	<g>
	</g>
	<g>
	</g>
	<g>
	</g>
	<g>
	</g>
	<g>
	</g>
	<g>
	</g>
</svg>